<?xml version="1.0" encoding="UTF-8"?>
<svg id="Layer_2" data-name="Layer 2" xmlns="http://www.w3.org/2000/svg" viewBox="0 0 56.1 34">
  <g id="Layer_1-2" data-name="Layer 1">
    <g>
      <path d="M28.05,34h-.64c-7.64-.11-14.7-2.02-19.9-5.4C2.67,25.45,0,21.33,0,17S2.67,8.55,7.52,5.41C12.7,2.03,19.76.11,27.41,0h1.27c7.65.11,14.71,2.02,19.89,5.4,4.85,3.15,7.52,7.27,7.52,11.6s-2.67,8.44-7.51,11.59c-5.19,3.37-12.26,5.29-19.89,5.4h-.65ZM28.05.79h-.64c-7.49.11-14.41,1.98-19.47,5.27C3.32,9.07.78,12.95.78,17s2.54,7.93,7.16,10.93c5.07,3.29,11.99,5.17,19.48,5.27h1.27c7.49-.11,14.41-1.98,19.47-5.27,4.62-3,7.16-6.89,7.16-10.93s-2.54-7.93-7.16-10.93C43.1,2.77,36.18.9,28.68.8h-.63Z"/>
      <path d="M28.05,11.48c-2.88,0-5.71-.26-8.43-.78-2.58-.49-5.01-1.2-7.24-2.12-1.76-.71-3.39-1.56-4.85-2.51l-.51-.33.51-.33C12.7,2.03,19.76.11,27.41,0h1.27c7.65.11,14.71,2.02,19.89,5.4l.51.33-.51.33c-1.45.94-3.09,1.78-4.85,2.51-2.24.92-4.68,1.63-7.24,2.12-2.72.52-5.56.78-8.43.78h0ZM8.47,5.74c1.28.79,2.69,1.5,4.2,2.11,2.18.89,4.56,1.59,7.1,2.07,2.67.51,5.46.76,8.29.76s5.62-.26,8.29-.76c2.52-.48,4.9-1.17,7.1-2.07,1.51-.61,2.92-1.33,4.19-2.11C42.61,2.64,35.92.89,28.68.79h-1.27c-7.23.1-13.93,1.85-18.95,4.94h0ZM28.05,34c-.21,0-.43,0-.65,0-7.62-.1-14.69-2.01-19.89-5.4l-.51-.33.51-.33c1.46-.94,3.09-1.79,4.85-2.51,2.25-.92,4.68-1.62,7.24-2.12,2.72-.52,5.56-.78,8.43-.78s5.71.26,8.43.78c2.57.48,5.01,1.2,7.25,2.12,1.78.72,3.41,1.57,4.85,2.51l.51.33-.51.33c-5.19,3.37-12.26,5.29-19.89,5.4-.21,0-.43,0-.65,0h0ZM8.47,28.26c5.02,3.09,11.72,4.84,18.95,4.93.43.02.84.02,1.26,0,7.23-.1,13.93-1.84,18.95-4.93-1.27-.78-2.68-1.49-4.19-2.11-2.2-.89-4.59-1.59-7.11-2.07-2.67-.51-5.46-.76-8.29-.76s-5.62.25-8.29.76c-2.51.48-4.9,1.17-7.1,2.07-1.5.61-2.92,1.33-4.2,2.11Z"/>
      <path d="M28.05,34h-.52c-6.26-.15-12-3.14-15.33-7.98-1.86-2.69-2.84-5.81-2.84-9.01s.99-6.32,2.85-9.02C15.54,3.15,21.27.16,27.53,0h1.04c6.27.15,12,3.14,15.33,7.97,1.86,2.69,2.85,5.81,2.85,9.02s-.99,6.32-2.84,9.01c-3.33,4.85-9.07,7.83-15.33,7.98h-.52v.02ZM28.05.79h-.5c-6.01.14-11.51,3.01-14.7,7.64-1.77,2.56-2.7,5.52-2.7,8.56s.94,5.99,2.7,8.56c3.2,4.63,8.7,7.49,14.71,7.64h1c6.02-.14,11.52-3.01,14.71-7.64,1.77-2.57,2.7-5.53,2.7-8.56s-.93-6-2.7-8.57c-3.2-4.63-8.7-7.49-14.71-7.64h-.51Z"/>
      <path d="M28.05,34c-5.25,0-9.53-7.62-9.53-17S22.8,0,28.05,0s9.53,7.62,9.53,17-4.28,17-9.53,17ZM28.05.79c-4.82,0-8.75,7.27-8.75,16.21s3.93,16.21,8.75,16.21,8.75-7.27,8.75-16.21S32.87.79,28.05.79Z"/>
      <path d="M28.44.4h-.78v33.21h.78V.4Z"/>
      <path d="M55.71,16.6H.39v.79h55.32v-.79Z"/>
    </g>
  </g>
</svg>