<svg xmlns="http://www.w3.org/2000/svg" version="1.1" xmlns:xlink="http://www.w3.org/1999/xlink" xmlns:svgjs="http://svgjs.com/svgjs" width="32" height="32"><svg id="SvgjsSvg1000" xmlns="http://www.w3.org/2000/svg" viewBox="0 0 32 32"><defs><style>.cls-1{fill:#061413;}</style></defs><path class="cls-1" d="m19.5,2.69l-3.5-1.94-4.5,2.5,4.5,2.5,2.44-1.36c5.78,1.14,10.16,6.25,10.16,12.36,0,6.95-5.65,12.6-12.6,12.6S3.4,23.7,3.4,16.75c0-3.81,1.71-7.22,4.39-9.53l2.21-2.97-3.49,1.56c-3.07,2.65-5.01,6.56-5.01,10.94,0,8.01,6.49,14.5,14.5,14.5s14.5-6.49,14.5-14.5c0-6.8-4.69-12.49-11-14.06Z"></path></svg><style>@media (prefers-color-scheme: light) { :root { filter: none; } }
@media (prefers-color-scheme: dark) { :root { filter: invert(100%); } }
</style></svg>