<svg xmlns="http://www.w3.org/2000/svg" viewBox="0 0 142.79 146.45"><path d="M81.15 4.14 70.62 0 57.03 5.67l13.71 5.39 7.09-2.96c6.55.62 12.93 2.19 19.04 4.71 8.02 3.3 15.25 8.07 21.47 14.18 6.22 6.11 11.14 13.24 14.6 21.2 3.58 8.24 5.44 17.02 5.54 26.09.09 9.07-1.59 17.88-5 26.2a66.997 66.997 0 0 1-14.16 21.5c-6.1 6.23-13.22 11.15-21.18 14.62-8.23 3.59-17 5.45-26.05 5.54-9.06.09-17.86-1.59-26.16-5.01a66.761 66.761 0 0 1-21.47-14.18c-6.22-6.11-11.14-13.24-14.6-21.2-3.58-8.24-5.44-17.02-5.54-26.09-.09-9.07 1.59-17.88 5-26.2 3.3-8.03 8.06-15.27 14.16-21.5 4.74-4.84 10.1-8.89 15.98-12.08s.09-.05.09-.05l10.44-7.74-11.05 3.18-.11.03v.02C12.99 24.61-3.67 53.21.69 85.04c4.42 32.28 30.92 57.8 63.3 61.04 43.12 4.32 79.23-29.69 78.8-71.85-.37-35.92-27.12-65.37-61.63-70.09Z" style="fill:#0b0b0b"/></svg>